/* XPM */
static char * sequview_xpm[] = {
"128 128 9 1",
" 	c None",
".	c #010101",
"+	c #2B2B2B",
"@	c #4A4A4A",
"#	c #666666",
"$	c #898989",
"%	c #A9A9A9",
"&	c #CBCBCB",
"*	c #FCFCFC",
"................................................................................................................................",
"................................................................................................................................",
"................................................................................................................................",
"................................................................................................................................",
"................................................................................................................................",
"...................@##$#+.......................................................................................................",
"................+#&&****&$+.....................................................................................................",
"...............+%*********&#+...................................................................................................",
"..............@&***********&#...................................................................................................",
".............@&*************%...................................................................................................",
"............+&**************&+..................................................................................................",
"...........+&****************$..................................................................................................",
"..........+&*****************&+.................................................................................................",
".........+&*******************%+................................................................................................",
".........%*********************%+...............................................................................................",
"........#*******&%&*************$+..............................................................................................",
"........%*******#.#&************%+..............................................................................................",
".......@********#..$************#...............................................................................................",
".......#********#..@&**********$+...............................................................................................",
".......%********#...$*********$+................................................................................................",
"......+*********#...@********$+.................................................................................................",
"......#*********#...+&******%@..................................................................................................",
"......#*********%+...@&****%+.............................................................................++....................",
"......@**********$....+%*&%@.................................................@#$$$$#+...................+#&$+...................",
"......#**********%@.....+@+................@#@@###$$+.....................+#&******&&%+.................$**&@.........+++.......",
"......#***********&@....................+#&&**&*****&+...................@%***********$@+.............+#***&@........+%&$.......",
"......#************&+..................@&************$..................@&************&&$.............#&***&+.......+%**&+......",
"......@*************&#................#**************%.................@****************&+...........#*****%.......+%****@......",
"......@&*************%#+.............$***************&+...............@******************@..........#&*****#......+$*****+......",
"......+%***************&%$+.........$*****************@..............@&******************$.........#&*****&@.....+$******@......",
".......#&*****************&%+......$******************@.............+********************$........+&*******+....+$*******#......",
"........$*******************%@....#******************&@............+&********************$........@*******&+....$********@......",
"........+&*******************%+..#*******************&+...........+&*********************%........$*******&+...#********&+......",
".........#&******************&@.@********************#............$******%@#$%*&*********$........&*******%....$********&+......",
"..........%*******************@@*******%&***********%+...........@*******@...++%*********%.......@&*******%....&********&+......",
"..........+&******************#&******#@&**********&+............%******&@.....%*********$.......@********%....&********&+......",
"...........+$&****************%*******$&**********&+............@*******&+.....%*********%.......$********$....&********&+......",
".............+%**************&********&***********+.............$*******%+.....%*********$.......%********#...+*********&+......",
"..............@#%********************************+..............%*******&+.....$*********%.......$********@...@*********&+......",
".................@&*****************************@..............@&*******&+.....%*********$.......$********#...@*********&+......",
"..................+@$*******&*****************&@...............@********&+.....$*********%.......$********@...@*********&+......",
"....................#*******%****************$.................@********&@.....%*********$.......%********#...@*********&.......",
"..................@$&******&$************&%#...................$*********&%+...%*********%.......%********#...#*********&.......",
"................#&&********@@***********&$.....................$***********&$+.&*********$......+&********@...@*********&.......",
"..............#&**********#.$************&%@+..................$*************&&&*********%......@********&#...@*********&.......",
".............#***********$..$**************&%%%$##@@######$#...$*************************$......@*********&+..#*********&.......",
"............#***********$...$********************&***&*****%+..$*************************%......@**********%$$&*********&.......",
"...........@***********%....@******************************%+..#*************************$......@***********************&##+....",
"..........@***********%......%****************************&@...#*************************%......#*************************&&##+.",
".........@&**********$.......#****************************#....+%************************%......$****************************&$+",
"........@**********%@........@&**************************#......$************************%......$*****************************%+",
".......+&******&%%#+..........@&************************$.......+$&**********************&......@*****************************$.",
".......$****&&#+...............@&**********************$..........+$***********&%********%......@&***************************$+.",
".......#&*&@.....................#%&******************$+...........+$&&*&*&&%#+.$********%......+&**************************%+..",
"........##+........................@$&**************&$..........................%********#.......#&************************%+...",
"......................................+#%%$%%%$$$$$#@...........................$********@........+%&*********************&+....",
"................................................................................%*******&+..........@#%&&%$$$$$&*********%@.....",
"................................................................................%*******&...+@.................+@@%*****%@......",
"................................................................................&*******%..@%*$....................@#$$#@.......",
"...............................................................................+********%.#&**&+................................",
"...............................................................................@********$#****%+................................",
"...............................................................................@********$*****#.................................",
"...............................................................................#*************$..................................",
"...............................................................................$************&...................................",
"...............................................................................%***********&+...................................",
"..............................................................................+&***********+....................................",
"..............................................................................#***********+.....................................",
"..............................................................................@*********&@......................................",
"..............................................................................#*********+.......................................",
"............+++...............................................................%*******&+........................................",
"...........+$&#..............................................................+&******%+.........................................",
"..........+%**%+.............................................................+&****%@...........................................",
".........+%***&+.............+++..............................................@%%#+.............................................",
".........$*****+............+$&#................................................................................................",
".......+$*****&+...........+%**%+.........+$#@..................................................................................",
".......$******&+..........+%***&+........@%*&%+.................................................................................",
"......$*******&+.........+%****&+.......@&***%+.................................................................................",
".....@&*******&+.........$*****$.......+%***&@.......................................................................+@.........",
".....$*********@.......+$******@......+%***&#+......................................................................@%*#........",
".....%*********#.......$*******#.....+%****$.......................................................................@&**&+.......",
".....%*********#......#*******&@....+%***&$.....................@######+...............+++........................+&***&+.......",
".....$*********#......%********@....%****$+.................@$%&&**&**&&%$#+..........+$%$+......................+&****%........",
".....$*********#.....+&*******&+...@&***$+................+%***************%+........+$**&$+....................+&*****@........",
".....$*********@.....@********&+...+%&&#+................@&*****************#.......+$&***&+...................+%*****%.........",
".....#*********@.....@********&.....+++....+#%+.........#&******************%.......$*****&@.........+@#......+%******$.........",
".....@*********#.....@********&...........+%**#........#********************%+....+$&******#........@%&*@.....$******&@.........",
".....@&********#.....@********%..........+&***$.......#*********************&+....$&*******$.......+&***$.....&******&+.........",
".....@&********$.....@********@.........+%****#......@**********************%+...#&********%+.....+&****%....@*******&+.........",
".....@*********%.....#*******%.........+%*****#.....@&**********************&...@&*********&+....+&*****$....#*******&+.........",
".....@&********%.....$*******@.........$******#....@&***********************&...@&**********@...+%******%....%*******&..........",
".....#*********%.....$******%........+%*******@...+&******%$$$$%%&**********%....$**********#..+%*******$...+&*******%..........",
".....@*********$.....%******%........$********@...%******$.......+#&********#....#**********#..%********%...@********%..........",
".....#&********%....+*******#.......+&********@..#*******#.........$********+....@&*********@.$*********$...#********#..........",
".....#*********%....$******&@.......@*********+.+&*******#........@%*******$.....+&*********#+&*********%...$********#..........",
".....#*********%...+&******&........#********&+.#********$$$$$$%%&********&+......$********&#$**********$...$*******&@..........",
".....+&********%...$*******$........#********&..%************************&+.......$*********$&**********%...$*******&+..........",
"......&********%...%*******@........#********$.+&************************@........$*********$***********$...%*******&+..........",
"......%********%..+*******&+........@&*******+.#************************@.........#********&$***********%..+********&+..........",
"......$********&..@*******%.........#*******&..$***********************@..........#*********$***********%..@********&+..........",
"......%********%..#*******$.........#*******%..#**********************#...........@&********%***********%..@********&+..........",
"......%********%..&*******#.........%*******#..#********************&@............#*********&***********%..#&*******&+..........",
"......%********&+@********+.........%*******@..#******************&$@.............@*********************%..#********&...........",
"......&********&.$*******%..........&******&+..#****************%$+...............@*********************&..$********%...........",
"......%********&+$*******#.........#*******%+..@************&$#+..................@&********************&+.$********$...........",
"......%********&+$******&+.........%*******%...+&***********%.....................#**********************#.$********#...........",
"......&********%+%******%.........+********%....$***********&@....................@**********************$+#********@...........",
"......%********&@&******#.........@********#....+%***********&@...................#&*********************&@$*******&@...........",
"......$********%$******&+.........@********@.....#************%+..................#***********************%%*******%............",
"......$********&%******$..........$********@.....@&***********&%+.................#***********************&*******&+............",
"......$********&******%+..........$********#.....+&*************%@................#*******************************$.............",
"......$***************+...........$********$+.....#&*************&%%%%$####$$###+.@******************************&+.............",
"......$**************$...........+&********%+.....@&***************************&$+@&***********%*****************+..............",
"......$*************%............#********&#.......&****************************%++&**********@@&***************+...............",
"......$************%+............$********$+.......@&***************************$..%*********#..$**************@................",
"......$***********&+.............#*******$+.........#&*************************$+..#********#...@&************@.................",
"......#**********&+..............@*****&%+..........+%************************%+...+&*****&#.....#%**********#..................",
"......#*********&+...............@&****%+............@&**********************%+.....$****%#.......@&*******&#...................",
"......@********&+................+%***%@..............#*********************%@.......@#$#+.........@%***&*%@....................",
"......+&******%+..................#%&%+................@&******************&@...................................................",
".......$***&%@.....................+@+..................+$&***************%@....................................................",
"........@@@+..............................................@$&&&&%$$%%%%$$#+.....................................................",
"................................................................................................................................",
"................................................................................................................................",
"................................................................................................................................",
"................................................................................................................................",
"................................................................................................................................",
"................................................................................................................................",
"................................................................................................................................"};
